PathFileType	4	(X/Y/Z)	Run_200 02
DataRate	CameraRate	NumFrames	NumMarkers	Units	OrigDataRate	OrigDataStartFrame	OrigNumFrames
100	100	5	42	mm	100	164	128
Frame#	Time	RASI			LPSI			RPSI			RTH1			RTH2			RTH3			LTH1			LTH2			LTH3			RTB1			RTB2			RTB3			LTB1			LTB2			LTB3			RCAL			RTOE			RMT5			LCAL			LTOE			LMT5			LACR			RACR			C7			RUA1			RUA2			RUA3			RLEL			RMEL			LUA2			LUA3			LLEL			LMEL			RFAsuperior			RFAradius			RFAulna			LFAsuperior			LFAradius			LFAulna			LUA1			CLAV			LASI		
		X1	Y1	Z1	X2	Y2	Z2	X3	Y3	Z3	X4	Y4	Z4	X5	Y5	Z5	X6	Y6	Z6	X7	Y7	Z7	X8	Y8	Z8	X9	Y9	Z9	X10	Y10	Z10	X11	Y11	Z11	X12	Y12	Z12	X13	Y13	Z13	X14	Y14	Z14	X15	Y15	Z15	X16	Y16	Z16	X17	Y17	Z17	X18	Y18	Z18	X19	Y19	Z19	X20	Y20	Z20	X21	Y21	Z21	X22	Y22	Z22	X23	Y23	Z23	X24	Y24	Z24	X25	Y25	Z25	X26	Y26	Z26	X27	Y27	Z27	X28	Y28	Z28	X29	Y29	Z29	X30	Y30	Z30	X31	Y31	Z31	X32	Y32	Z32	X33	Y33	Z33	X34	Y34	Z34	X35	Y35	Z35	X36	Y36	Z36	X37	Y37	Z37	X38	Y38	Z38	X39	Y39	Z39	X40	Y40	Z40	X41	Y41	Z41	X42	Y42	Z42	

164	  1.640000	1232.093663	1039.277123	-182.303637	1068.136751	1076.347152	-363.640194	1061.069193	1075.412736	-270.402462	1219.236139	861.565542	-126.984084	1278.948808	772.324020	-145.311481	1243.763678	630.483386	-169.939725	1158.777727	869.726236	-488.947923	1191.125646	732.716039	-451.373588	1093.032049	631.808232	-453.811534	1335.378024	380.509178	-251.544864	1301.280199	271.657868	-212.260470	1330.735634	206.903884	-281.048638	957.904669	382.424144	-381.324488	889.345137	373.223471	-425.173780	837.794390	311.224102	-368.577154	1228.904664	 91.418559	-283.619675	1459.022562	124.822182	-307.265493	1451.164473	 86.646725	-235.665306	674.175078	334.359877	-361.141685	772.495864	118.881809	-311.011851	737.156864	116.700164	-394.766170	1231.694571	1571.079244	-462.570905	1196.632626	1541.437368	-134.362456	1149.356112	1578.106791	-307.390053	1098.789400	1450.449045	-57.749414	1034.345674	1463.398742	-81.301530	1018.296112	1400.598065	-45.206631	957.497578	1337.915666	-34.253306	935.620069	1342.090172	-127.681452	1110.300569	1426.146449	-561.536606	1148.175247	1357.617332	-600.533904	1130.188855	1286.307934	-616.767655	1071.459229	1276.887659	-544.847620	1043.964426	1320.587315	-44.411839	1196.837847	1294.335888	-118.355564	1175.832868	1230.044842	-94.678541	1205.527643	1267.798020	-573.320034	1316.484039	1289.193978	-432.353398	1323.700077	1219.209197	-446.830804	1190.490879	1471.027979	-557.343931	1256.059254	1484.036307	-268.100623	1233.905969	1031.147623	-440.938445	
165	  1.650000	1232.860770	1032.068129	-182.139331	1067.617702	1068.990330	-362.791091	1061.250030	1067.887261	-269.002595	1220.825727	855.533165	-129.405543	1280.986416	768.094265	-149.360394	1248.371823	624.742502	-171.327123	1160.147497	863.494791	-489.246237	1195.649938	726.582902	-454.320559	1100.179149	623.838914	-456.451938	1334.144781	372.784605	-252.877959	1295.426648	265.373230	-214.366550	1322.733919	199.524622	-283.160491	964.246368	377.722174	-386.017531	894.637250	372.590535	-428.739155	841.141806	311.863426	-373.141144	1214.824544	 93.557978	-285.538329	1447.249905	107.787744	-307.582380	1436.626027	 70.803298	-235.575464	677.603207	341.333132	-363.485407	770.397324	122.541618	-317.802523	733.903181	122.578942	-401.067994	1230.591011	1561.840440	-462.788622	1197.985918	1532.066196	-133.152030	1150.501809	1569.722424	-306.114410	1102.224917	1437.799270	-55.706412	1036.966438	1449.361944	-77.641502	1023.190181	1385.329561	-42.957502	964.279448	1321.681981	-31.857935	940.864473	1326.012733	-124.700594	1105.286769	1418.400078	-558.694732	1141.262319	1349.352400	-598.929953	1121.920682	1278.632119	-614.996582	1065.025625	1269.734650	-541.619949	1050.606241	1305.659026	-42.831366	1203.241443	1281.472473	-118.135906	1183.380112	1217.036208	-94.232435	1197.815044	1256.961671	-573.956013	1313.218288	1272.428424	-435.487766	1317.728564	1202.544911	-451.583059	1186.103209	1462.232615	-556.010052	1257.226898	1475.260531	-267.671639	1234.381590	1023.281491	-440.737154	
166	  1.660000	1233.000032	1024.392146	-182.093779	1066.381823	1060.965603	-361.875524	1060.791477	1060.104027	-267.771028	1222.261964	849.950682	-131.372886	1282.684129	763.798317	-151.566605	1253.100511	619.461163	-172.379321	1161.069226	856.390782	-489.330502	1199.938636	719.691869	-457.592597	1107.454674	615.174375	-459.220164	1333.930378	366.446313	-254.896636	1290.901894	260.471683	-217.285281	1314.749205	193.830310	-286.182465	971.418278	372.524232	-390.390207	901.071428	371.174322	-432.251245	845.746252	311.935643	-377.758155	1200.091676	 95.869735	-287.801872	1433.927522	 93.687517	-309.216803	1421.673070	 59.996462	-236.101691	682.713452	347.645063	-365.492273	770.045106	125.601042	-325.115869	732.468306	128.278380	-407.863486	1229.423222	1552.230044	-463.337772	1199.480195	1521.894882	-131.687643	1151.809335	1560.546849	-304.852053	1105.923083	1424.132289	-53.676589	1039.900428	1434.177304	-73.846270	1028.497402	1368.947094	-40.622499	971.624693	1304.314352	-29.509967	946.586810	1308.797335	-121.698076	1099.918492	1409.791888	-555.395020	1133.931118	1340.230490	-596.673724	1113.193256	1270.307663	-612.617939	1058.197768	1261.807894	-537.595855	1057.791303	1289.612284	-41.241383	1210.030333	1267.164608	-118.003863	1191.116715	1202.581803	-93.690770	1189.617072	1245.369856	-574.336735	1309.591041	1254.203463	-439.116499	1311.307645	1184.633826	-456.829244	1181.576907	1452.283989	-554.715011	1258.558404	1465.682584	-267.259277	1234.170132	1014.935541	-440.708847	
167	  1.670000	1232.376156	1016.765795	-182.114209	1064.457552	1052.705691	-361.418009	1059.553133	1052.211379	-267.625133	1223.047391	845.147232	-131.850025	1283.880592	759.522974	-150.887261	1257.570671	615.034048	-173.318116	1161.669937	848.461713	-489.370730	1204.012742	712.567959	-460.885966	1114.929688	606.016134	-461.762566	1333.984720	361.781613	-258.158275	1287.453962	257.387819	-220.609724	1305.635201	190.258289	-289.884768	979.538462	367.326535	-394.156624	908.901109	369.073097	-435.533136	851.730605	311.720559	-381.855195	1184.197363	 98.068701	-289.986145	1418.529460	 84.420636	-312.232397	1405.603132	 55.800835	-237.583873	689.491616	353.305136	-367.419314	771.855924	128.366699	-332.755353	733.600467	133.898429	-415.031136	1228.310830	1542.455579	-464.427268	1201.163637	1511.288626	-129.833677	1153.258013	1551.202071	-303.618864	1109.818849	1409.494950	-51.689178	1043.064205	1417.926477	-69.930857	1034.183133	1351.429384	-38.394194	979.462293	1285.986338	-27.295132	952.823778	1290.595484	-118.833576	1094.198588	1400.472230	-551.727628	1126.234352	1330.312566	-593.581984	1104.067162	1261.557172	-609.560710	1051.268441	1253.339289	-532.879559	1065.498419	1272.449429	-39.642373	1217.216517	1251.449452	-117.946322	1199.060062	1186.702717	-93.111413	1180.949206	1233.165908	-574.437523	1305.607312	1234.614674	-443.281859	1304.389913	1165.542172	-462.664119	1176.708188	1441.537656	-553.338183	1260.064280	1455.994823	-266.872282	1233.189788	1006.631840	-440.737070	
168	  1.680000	1231.202504	1009.784072	-182.161340	1062.067819	1044.575670	-361.778945	1057.676596	1044.418720	-268.713606	1222.883097	840.804294	-131.033475	1284.365846	755.112658	-148.306798	1261.200217	611.307907	-174.364399	1162.084130	840.078311	-489.627080	1208.038858	705.972329	-464.096313	1122.681037	596.824265	-463.917243	1332.890172	358.310169	-262.421456	1283.234048	255.796540	-223.598813	1294.305281	188.370940	-293.462107	988.840254	362.539247	-397.218390	918.337285	366.525816	-438.485988	859.280988	311.474767	-385.185806	1166.788729	 99.957819	-291.754425	1401.172533	 79.641747	-315.291436	1387.925341	 56.020496	-239.371179	697.774856	358.249516	-369.559386	776.224396	131.067280	-340.325850	738.093526	139.423968	-422.414891	1227.350563	1532.572644	-465.865741	1203.028107	1500.690968	-127.556247	1154.774809	1542.626257	-302.386646	1113.926624	1393.906140	-49.826346	1046.436485	1400.706503	-65.851063	1040.346582	1332.717919	-36.760099	987.788437	1266.934014	-25.340681	959.740554	1271.677518	-116.268242	1088.135597	1390.785686	-547.724879	1118.226194	1319.802318	-589.454125	1094.561354	1252.638659	-605.778947	1044.448829	1244.594410	-527.512415	1073.685660	1253.986396	-38.032298	1224.843122	1234.412315	-118.009427	1207.355251	1169.485102	-92.759865	1171.670437	1220.497738	-574.175918	1301.162714	1213.832596	-448.028617	1296.729051	1145.410393	-469.188374	1171.460923	1430.504897	-551.808898	1261.666518	1447.158977	-266.473914	1231.783763	998.993257	-440.664111	
